<?xml version="1.0" standalone="no"?>
<!DOCTYPE svg PUBLIC "-//W3C//DTD SVG 20010904//EN"
 "http://www.w3.org/TR/2001/REC-SVG-20010904/DTD/svg10.dtd">
<svg version="1.0" xmlns="http://www.w3.org/2000/svg"
 width="512.000000pt" height="512.000000pt" viewBox="0 0 512.000000 512.000000"
 preserveAspectRatio="xMidYMid meet">
<metadata>
Created by potrace 1.11, written by Peter Selinger 2001-2013
</metadata>
<g transform="translate(0.000000,512.000000) scale(0.100000,-0.100000)"
fill="#000000" stroke="none">
<path d="M2533 4858 c28 -66 31 -83 31 -173 0 -84 -4 -111 -27 -167 -14 -38
-22 -68 -17 -68 5 0 7 -6 4 -14 -3 -8 -12 -12 -20 -9 -8 3 -14 1 -14 -5 0 -5
-20 -39 -45 -75 -52 -76 -57 -100 -21 -91 13 3 33 1 45 -5 18 -10 21 -8 27 13
3 14 3 30 -1 35 -3 6 -1 11 5 11 6 0 9 4 6 8 -2 4 13 8 34 9 46 2 64 -15 52
-48 -5 -13 -12 -58 -16 -100 -5 -60 -4 -80 8 -91 15 -16 11 -62 -8 -76 -15
-13 -67 -21 -60 -11 3 5 -2 9 -10 9 -15 0 -33 37 -22 47 3 3 17 6 31 6 14 0
25 3 25 8 0 5 -14 9 -30 9 -24 0 -33 6 -41 28 -6 15 -12 36 -13 47 -1 13 -7
19 -19 17 -10 -2 -29 4 -42 12 -30 20 -45 20 -45 1 0 -8 -9 -20 -21 -27 -30
-18 -78 -119 -95 -197 -24 -116 -18 -177 27 -278 24 -54 24 -59 -2 -66 -17 -5
-20 -2 -16 13 3 13 -3 24 -19 35 -13 8 -25 14 -27 13 -1 -2 -19 16 -40 38 -73
81 -85 140 -71 331 7 88 -9 181 -32 190 -7 2 -10 11 -7 18 7 21 -85 113 -142
142 -59 31 -156 65 -163 58 -3 -2 14 -30 37 -60 63 -83 85 -139 85 -215 0 -70
-7 -146 -17 -170 -14 -34 -67 -239 -73 -283 -4 -27 -10 -44 -14 -40 -3 4 -28
61 -54 125 -113 277 -203 349 -448 360 -49 3 -88 2 -88 -1 0 -3 18 -15 40 -25
60 -29 146 -120 183 -195 31 -64 32 -70 38 -236 7 -174 19 -236 61 -319 24
-46 15 -59 -32 -46 -46 13 -74 41 -137 139 -69 106 -136 172 -216 210 -113 55
-227 51 -352 -12 l-60 -30 78 -14 c176 -30 264 -113 344 -325 53 -142 98 -231
143 -283 22 -25 37 -51 34 -57 -11 -18 -72 -38 -116 -38 -104 1 -225 53 -417
179 -68 44 -147 88 -174 96 -101 30 -215 13 -340 -50 -73 -37 -187 -120 -187
-136 0 -5 17 -9 39 -9 64 0 208 -29 270 -54 115 -46 195 -114 366 -309 87
-100 272 -224 297 -199 6 6 18 1 32 -13 24 -24 115 -43 156 -32 34 9 22 -10
-27 -42 -90 -60 -170 -64 -283 -17 -33 15 -88 38 -122 53 -48 20 -80 26 -133
26 -85 0 -139 -22 -209 -84 -48 -42 -140 -158 -133 -166 2 -2 44 6 93 18 113
27 192 22 298 -19 l77 -30 44 24 c40 21 46 22 60 8 18 -18 21 -4 2 15 -10 11
-8 11 11 1 13 -6 30 -9 38 -6 10 4 12 2 8 -6 -5 -7 2 -9 20 -6 21 4 34 -1 55
-25 29 -30 32 -67 5 -67 -8 0 -14 -4 -14 -10 0 -22 29 -8 41 19 10 22 17 27
26 20 13 -12 6 -42 -8 -33 -5 3 -9 -14 -9 -38 0 -24 -3 -53 -6 -66 -5 -18 -2
-22 15 -22 12 0 19 -4 16 -10 -3 -5 -13 -10 -22 -10 -9 0 -31 -16 -50 -35 -35
-36 -53 -44 -53 -24 0 6 -7 9 -15 5 -8 -3 -15 0 -16 7 0 7 -4 2 -9 -10 -10
-25 -35 -31 -43 -10 -4 9 -6 9 -6 -1 -2 -21 26 -25 52 -7 16 10 27 12 31 6 4
-5 -1 -14 -11 -19 -23 -12 -92 -24 -77 -14 7 5 6 15 -3 32 -7 14 -13 19 -13
13 0 -7 -7 -13 -15 -13 -8 0 -15 -5 -15 -11 0 -5 4 -7 10 -4 6 3 10 2 10 -3 0
-23 -29 -17 -75 14 -28 19 -56 34 -63 34 -7 0 -39 -13 -71 -29 -79 -41 -140
-111 -183 -213 -59 -137 -59 -139 3 -84 96 86 245 144 339 132 26 -3 83 -19
126 -35 128 -46 224 -64 325 -59 49 2 89 1 89 -2 0 -38 -132 -144 -184 -148
-63 -4 -166 -27 -197 -43 -51 -25 -124 -110 -144 -167 -23 -66 -30 -176 -15
-246 l12 -59 34 64 c43 80 91 129 163 167 82 44 133 55 261 58 130 2 146 5
212 35 27 12 51 19 54 16 4 -4 9 -28 12 -55 3 -36 -1 -59 -16 -88 -28 -54
-110 -127 -189 -168 -21 -11 -30 -21 -27 -31 4 -8 1 -15 -6 -15 -6 0 -8 4 -5
10 27 44 -115 -60 -174 -126 -72 -82 -110 -197 -96 -293 7 -52 53 -229 64
-249 5 -9 16 8 30 48 75 206 208 315 481 395 115 33 264 100 255 115 -3 5 0 7
8 4 20 -7 129 113 161 178 14 30 30 74 35 98 l8 45 22 -50 c32 -69 32 -156 2
-217 -12 -26 -52 -80 -88 -120 -36 -40 -79 -101 -95 -136 -27 -56 -30 -70 -27
-146 4 -73 9 -92 43 -159 21 -42 54 -94 72 -114 l33 -38 1 50 c2 204 73 333
251 455 50 34 117 84 150 111 32 28 59 46 59 41 0 -4 -11 -46 -25 -93 -42
-147 -57 -222 -57 -295 0 -93 25 -149 97 -219 57 -56 143 -120 151 -113 2 3
-4 25 -15 49 -47 107 -52 246 -12 348 25 62 25 62 6 55 -10 -4 -18 3 -25 22
-5 16 -15 37 -20 46 -8 15 -6 17 14 16 14 -1 22 -6 19 -11 -7 -11 16 -27 37
-27 12 1 11 3 -2 11 -19 11 -24 29 -9 29 5 0 17 -8 27 -17 16 -16 19 -15 50
22 77 91 133 199 134 258 0 35 12 34 43 -3 19 -22 27 -26 31 -15 3 8 1 17 -4
20 -6 4 -7 14 -2 23 12 26 7 75 -8 80 -8 3 -5 10 11 19 23 13 23 14 2 8 -20
-6 -23 -3 -23 24 0 29 -26 49 -57 43 -7 -2 -13 4 -13 12 0 8 6 17 13 19 25 10
-30 6 -108 -8 -90 -16 -301 -14 -399 5 -48 9 -60 9 -67 -2 -7 -11 -9 -10 -9 1
0 11 -4 11 -18 -3 -18 -15 -20 -15 -37 8 -10 14 -47 37 -81 51 -60 26 -65 26
-96 11 -32 -15 -32 -15 -12 2 22 18 22 19 -70 72 -106 62 -215 142 -270 199
-22 22 -44 37 -50 34 -6 -3 -8 -3 -4 2 4 4 -17 37 -46 74 -30 36 -71 95 -93
131 -34 56 -44 65 -71 68 -31 3 -46 22 -18 22 27 0 26 18 -4 93 -16 41 -40
113 -52 158 -12 46 -24 86 -27 89 -15 13 -12 309 3 400 58 352 242 645 524
838 242 165 465 229 767 219 88 -3 169 -8 180 -10 191 -46 344 -111 483 -206
568 -389 711 -1159 321 -1726 -53 -77 -198 -243 -214 -245 -5 0 -23 -12 -39
-26 -25 -22 -27 -28 -17 -50 6 -14 15 -23 20 -20 13 8 19 -37 9 -64 -6 -16 -5
-26 3 -31 7 -4 9 -17 5 -33 -7 -28 -44 -68 -57 -61 -12 8 -59 -17 -59 -31 0
-8 -11 -21 -25 -30 -14 -9 -22 -21 -18 -27 4 -6 1 -7 -7 -2 -15 9 -31 -14 -25
-36 3 -9 -1 -22 -10 -29 -12 -10 -15 -10 -15 4 0 9 -4 16 -10 16 -5 0 -10 7
-10 15 0 8 -6 15 -12 15 -9 0 -8 3 2 10 9 6 19 5 28 -2 10 -9 12 -8 10 2 -2 8
3 15 10 16 22 3 23 4 10 18 -11 12 -19 9 -49 -15 -40 -32 -71 -40 -49 -14 8 9
9 15 2 15 -17 0 -25 -21 -13 -33 6 -6 11 -21 11 -33 0 -13 5 -26 10 -29 7 -4
6 -13 -1 -27 -16 -30 4 -43 27 -17 18 21 18 22 1 16 -13 -5 -17 -3 -15 5 3 7
20 14 40 16 27 2 42 -3 65 -25 16 -15 32 -35 35 -43 13 -37 23 10 23 106 0 65
3 104 10 104 5 0 27 -5 48 -11 77 -21 152 -114 217 -271 29 -68 50 -98 50 -69
0 6 22 0 50 -12 38 -17 48 -26 44 -39 -3 -10 -1 -18 4 -18 13 0 3 -47 -14 -61
-7 -6 -19 -11 -26 -13 -13 -1 -18 -8 -18 -25 0 -4 20 -30 45 -57 25 -26 45
-51 45 -55 0 -11 70 -40 81 -34 6 4 8 13 5 21 -3 8 -1 14 4 14 6 0 10 7 10 17
0 9 3 14 6 10 10 -10 34 20 34 42 0 12 4 21 9 21 14 0 21 -44 8 -52 -9 -6 -9
-8 0 -8 7 0 16 -12 19 -26 4 -17 9 -22 14 -14 5 9 9 9 14 1 4 -6 4 -11 -1 -11
-4 0 -2 -4 5 -8 9 -6 10 -16 4 -33 -7 -17 -6 -28 4 -37 19 -18 34 -15 27 6 -6
15 -4 15 9 4 14 -11 16 -10 12 10 -5 20 -4 21 6 5 16 -25 28 -21 35 14 5 23
10 28 18 20 6 -6 17 -11 25 -11 8 0 22 -8 31 -18 13 -16 101 -38 101 -26 0 1
-33 22 -72 45 -87 51 -164 126 -198 195 -13 27 -25 54 -26 59 -18 91 -24 167
-24 295 0 181 -11 236 -70 349 -55 104 -103 166 -156 204 l-46 32 54 3 c89 5
160 -28 243 -112 39 -39 71 -78 73 -86 2 -8 9 -19 16 -25 7 -5 16 -22 19 -36
10 -40 96 -125 152 -151 75 -34 191 -31 312 6 51 16 90 33 87 38 -3 5 -12 7
-20 4 -8 -3 -14 -1 -14 4 0 4 -14 12 -32 15 -57 13 -155 63 -196 100 -61 54
-98 120 -143 251 -42 121 -67 179 -100 226 -11 14 -19 29 -19 32 0 3 48 -26
107 -64 59 -39 141 -87 183 -108 69 -34 82 -37 160 -37 74 0 92 4 140 29 48
25 170 105 170 111 0 1 -31 0 -68 -3 -160 -11 -291 52 -384 186 -16 23 -33 40
-39 37 -5 -3 -6 1 -3 9 8 22 -117 149 -181 182 -30 16 -55 32 -55 36 0 32 208
20 310 -18 59 -22 92 -28 155 -28 93 -1 134 17 202 84 39 40 130 196 120 206
-3 3 -31 -9 -62 -27 -157 -88 -300 -76 -468 41 -96 67 -176 106 -237 116 -54
9 -53 34 3 89 32 32 59 48 111 64 77 24 295 46 369 37 76 -8 199 10 256 38 74
38 145 141 122 178 -9 14 -8 18 3 18 8 0 18 14 21 32 10 41 22 238 15 238 -3
0 -23 -19 -45 -42 -52 -53 -144 -113 -207 -134 -86 -28 -216 -16 -368 35 -89
30 -149 44 -207 48 -144 10 -321 -29 -412 -92 -28 -20 -51 -33 -51 -31 0 2 9
32 20 67 34 112 106 173 235 199 194 38 275 91 332 218 20 42 26 75 30 155 5
116 11 116 -79 0 -34 -45 -60 -67 -100 -86 -90 -42 -139 -48 -350 -45 -109 2
-198 3 -198 4 0 0 40 33 88 72 191 155 247 236 246 357 -1 65 -36 219 -54 238
-4 5 -10 -11 -14 -35 -11 -73 -61 -164 -123 -227 -60 -59 -113 -89 -198 -111
-93 -24 -212 -86 -269 -140 -57 -53 -61 -53 -77 3 -13 47 6 93 68 162 174 196
187 410 34 578 -54 58 -81 74 -61 36 18 -32 14 -181 -5 -240 -10 -28 -39 -79
-66 -114 -26 -34 -45 -66 -42 -69 4 -3 -1 -6 -11 -6 -15 0 -97 -52 -184 -118
-18 -14 -51 -53 -74 -88 -35 -52 -44 -61 -59 -53 -46 24 -79 107 -79 199 0 70
18 145 72 301 40 115 43 132 43 229 0 124 -15 163 -97 242 -40 39 -55 47 -81
45 -25 -1 -31 2 -29 15 2 11 -16 29 -53 52 -30 20 -57 36 -59 36 -2 0 10 -33
27 -72z m137 -138 c0 -5 -2 -10 -4 -10 -3 0 -8 5 -11 10 -3 6 -1 10 4 10 6 0
11 -4 11 -10z m64 -421 c-8 -14 -30 -10 -45 8 -8 10 -9 14 -2 10 6 -4 15 -3
18 3 5 8 11 7 21 -1 7 -6 11 -15 8 -20z m-474 -369 c0 -5 -4 -10 -10 -10 -5 0
-10 5 -10 10 0 6 5 10 10 10 6 0 10 -4 10 -10z m125 -189 c3 -5 1 -12 -5 -16
-5 -3 -10 1 -10 9 0 18 6 21 15 7z m-235 -26 c10 -12 10 -15 -2 -15 -8 0 -15
7 -15 15 0 8 1 15 2 15 2 0 8 -7 15 -15z m55 -55 c3 -5 -1 -10 -9 -10 -9 0
-16 5 -16 10 0 6 4 10 9 10 6 0 13 -4 16 -10z m25 -50 c0 -5 -2 -10 -4 -10 -3
0 -8 5 -11 10 -3 6 -1 10 4 10 6 0 11 -4 11 -10z m-100 -10 c0 -5 -4 -10 -9
-10 -6 0 -13 5 -16 10 -3 6 1 10 9 10 9 0 16 -4 16 -10z m25 -19 c7 -12 -12
-24 -25 -16 -11 7 -4 25 10 25 5 0 11 -4 15 -9z m-452 -54 c-3 -5 -10 -4 -15
1 -6 6 -7 16 -3 22 6 9 9 9 16 -1 4 -7 5 -17 2 -22z m1672 -7 c3 -5 1 -10 -4
-10 -6 0 -11 5 -11 10 0 6 2 10 4 10 3 0 8 -4 11 -10z m1518 -535 c4 -8 2 -17
-3 -20 -6 -4 -10 3 -10 14 0 25 6 27 13 6z m-863 -215 c0 -5 -4 -10 -10 -10
-5 0 -10 5 -10 10 0 6 5 10 10 10 6 0 10 -4 10 -10z m-65 -440 c3 -5 -1 -10
-9 -10 -9 0 -16 5 -16 10 0 6 4 10 9 10 6 0 13 -4 16 -10z m-2800 -382 c4 4 3
-3 -4 -15 -16 -32 -29 -36 -40 -15 -12 23 6 47 24 32 7 -5 15 -6 20 -2z m-65
-48 c0 -5 -4 -10 -10 -10 -5 0 -10 5 -10 10 0 6 5 10 10 10 6 0 10 -4 10 -10z
m-100 -60 c0 -5 -2 -10 -4 -10 -3 0 -8 5 -11 10 -3 6 -1 10 4 10 6 0 11 -4 11
-10z m2545 -390 c3 -5 1 -10 -4 -10 -6 0 -11 5 -11 10 0 6 2 10 4 10 3 0 8 -4
11 -10z m-2045 -106 c0 -8 -5 -12 -10 -9 -6 4 -8 11 -5 16 9 14 15 11 15 -7z
m2130 -24 c0 -5 -4 -10 -10 -10 -5 0 -10 5 -10 10 0 6 5 10 10 10 6 0 10 -4
10 -10z m-1510 -160 c32 -32 56 -43 102 -47 61 -5 74 -15 81 -61 6 -37 17 -56
17 -29 0 10 5 17 10 17 6 0 10 9 10 20 0 11 7 23 15 26 8 4 12 10 9 15 -3 5 0
9 6 9 7 0 9 -7 6 -16 -4 -9 -1 -23 5 -30 13 -16 33 -19 24 -4 -4 6 1 7 11 3
12 -4 15 -3 10 5 -4 7 -2 12 3 12 19 0 12 -20 -15 -45 -14 -13 -23 -29 -19
-34 4 -7 0 -8 -10 -5 -12 5 -16 2 -13 -9 3 -17 3 -17 -41 -17 -24 0 -36 9 -61
44 -18 25 -42 47 -54 50 -11 3 -47 31 -79 61 -31 31 -61 54 -65 51 -4 -2 -9 5
-9 16 -2 20 -1 20 25 -3 15 -13 29 -26 32 -29z m440 -180 c0 -5 -4 -10 -10
-10 -5 0 -10 5 -10 10 0 6 5 10 10 10 6 0 10 -4 10 -10z m1085 -30 c3 -5 1
-10 -4 -10 -6 0 -11 5 -11 10 0 6 2 10 4 10 3 0 8 -4 11 -10z m-1881 -31 c-8
-14 -34 -11 -34 4 0 8 3 17 7 20 9 9 34 -13 27 -24z m554 2 c10 -6 9 -10 -7
-14 -14 -3 -21 0 -21 9 0 16 9 18 28 5z m405 -192 c7 -11 4 -22 -8 -36 -15
-18 -20 -19 -32 -8 -16 17 -17 37 -1 53 15 15 28 11 41 -9z m-1243 1 c0 -5 -2
-10 -4 -10 -3 0 -8 5 -11 10 -3 6 -1 10 4 10 6 0 11 -4 11 -10z m-325 -160 c4
-6 1 -18 -6 -26 -11 -14 -13 -14 -21 0 -15 26 12 51 27 26z m2695 5 c0 -2 -10
-10 -22 -16 -21 -11 -22 -11 -9 4 13 16 31 23 31 12z m-90 -47 c0 -18 -2 -20
-9 -8 -6 8 -7 18 -5 22 9 14 14 9 14 -14z m36 0 c0 -12 -6 -23 -12 -25 -6 -2
-10 6 -8 19 3 29 2 28 13 28 4 0 8 -10 7 -22z"/>
<path d="M2444 3520 c-198 -21 -383 -89 -554 -203 -105 -70 -264 -234 -322
-332 -68 -116 -68 -116 -8 -159 27 -20 52 -36 54 -36 2 0 21 30 41 67 139 252
389 439 683 508 98 23 102 24 107 15 2 -4 -11 -54 -30 -111 -19 -56 -35 -112
-35 -124 0 -12 -5 -26 -12 -33 -17 -17 2 -31 35 -25 29 6 36 30 15 52 -7 7 -8
11 -3 9 13 -4 75 47 75 61 0 5 5 13 12 17 8 5 9 2 5 -10 -4 -10 -3 -15 3 -11
6 3 10 0 10 -7 0 -10 2 -10 9 1 5 8 7 20 4 28 -3 7 -1 13 5 13 6 0 16 16 22
35 10 29 9 38 -4 51 -20 20 -21 30 -1 14 9 -7 18 -11 20 -8 11 11 64 181 59
189 -6 10 -87 10 -190 -1z m0 -105 c-6 -16 -24 -21 -24 -7 0 11 11 22 21 22 5
0 6 -7 3 -15z m-244 -57 c0 -16 -3 -19 -11 -11 -6 6 -8 16 -5 22 11 17 16 13
16 -11z m345 12 c3 -5 2 -10 -4 -10 -5 0 -13 5 -16 10 -3 6 -2 10 4 10 5 0 13
-4 16 -10z m-65 -86 c0 -8 -4 -12 -10 -9 -5 3 -10 10 -10 16 0 5 5 9 10 9 6 0
10 -7 10 -16z"/>
<path d="M2716 3499 c-26 -77 -36 -112 -34 -113 2 -1 41 -9 88 -19 99 -19 237
-71 310 -116 28 -17 54 -31 59 -31 5 0 11 -3 13 -7 2 -5 21 -21 43 -38 110
-82 206 -193 274 -318 l43 -77 -331 0 c-286 1 -376 7 -330 22 10 3 -20 122
-50 193 -4 11 -25 72 -45 135 -64 197 -78 232 -87 218 -5 -7 -9 -21 -9 -31 0
-10 -10 -39 -21 -65 -37 -81 -35 -102 25 -284 31 -92 56 -172 56 -177 0 -7
-42 -11 -119 -11 l-119 0 -16 -47 c-9 -26 -16 -52 -16 -58 0 -21 46 -35 81
-25 17 5 36 7 40 4 10 -6 41 9 40 19 -1 4 2 6 7 5 4 -2 6 -8 6 -14 -2 -19 94
-23 594 -23 377 1 482 3 482 13 0 21 -45 147 -75 210 -69 145 -208 316 -342
418 -62 48 -211 138 -228 138 -5 0 -23 7 -38 15 -46 24 -178 62 -239 70 -45 6
-59 4 -62 -6z m631 -337 c-12 -16 -28 3 -20 24 4 10 8 10 18 1 9 -9 10 -16 2
-25z m-647 -41 c0 -5 -7 -11 -15 -15 -15 -5 -20 5 -8 17 9 10 23 9 23 -2z m10
-133 c0 -5 -8 0 -18 10 -11 9 -17 21 -14 25 4 8 31 -22 32 -35z"/>
<path d="M2515 3169 c-4 -6 -5 -12 -2 -15 2 -3 7 2 10 11 7 17 1 20 -8 4z"/>
<path d="M2304 2933 l-49 -148 -314 -5 -314 -5 97 -66 96 -67 186 4 c103 2
190 1 195 -1 4 -3 3 -19 -3 -36 -8 -24 -7 -34 4 -46 14 -13 16 -11 22 19 3 18
8 44 11 56 2 13 16 35 30 48 14 13 24 28 21 33 -8 12 20 34 33 27 5 -4 13 -1
17 5 5 8 2 10 -7 5 -8 -4 -4 1 9 10 24 18 29 39 10 48 -7 3 -3 3 9 0 18 -4 22
-2 17 10 -7 19 7 21 23 5 9 -9 13 -5 18 17 4 16 8 34 9 39 5 16 -10 50 -23 51
-24 3 -26 5 -11 14 13 8 13 10 -1 10 -21 0 -34 31 -17 41 6 4 15 6 19 3 4 -2
9 2 12 10 5 12 -33 66 -46 66 -3 0 -27 -66 -53 -147z"/>
<path d="M1454 2755 c-40 -96 -57 -199 -59 -360 -4 -189 3 -243 51 -393 44
-136 136 -298 231 -401 36 -39 69 -71 74 -71 5 0 31 16 59 36 l50 36 -62 69
c-33 38 -65 69 -69 69 -5 0 -9 6 -9 14 0 8 -11 27 -24 43 -34 41 -101 187
-133 289 -25 82 -27 105 -29 279 -2 125 1 192 8 196 6 4 91 -51 190 -122 99
-71 185 -126 191 -122 5 3 7 2 4 -3 -3 -5 26 -32 63 -59 65 -47 69 -52 64 -81
-5 -26 -2 -32 15 -37 12 -3 24 -1 27 4 3 5 9 7 14 4 5 -3 11 -1 15 4 10 17 78
-14 95 -42 18 -31 57 -62 96 -77 26 -10 27 -10 12 7 -24 27 -26 47 -9 61 13
11 13 12 1 6 -12 -5 -13 -4 -3 6 10 11 5 20 -23 47 -20 19 -34 40 -31 47 3 8
-4 23 -16 33 -20 18 -145 108 -197 143 -13 8 -35 24 -49 36 -50 40 -520 374
-526 374 -3 0 -13 -16 -21 -35z m796 -666 c0 -6 -4 -7 -10 -4 -5 3 -10 11 -10
16 0 6 5 7 10 4 6 -3 10 -11 10 -16z m-600 -267 c0 -5 -11 -14 -25 -20 -20 -9
-23 -9 -19 3 3 8 13 16 22 18 10 3 18 5 20 6 1 0 2 -3 2 -7z m145 -192 c3 -5
1 -10 -4 -10 -6 0 -11 5 -11 10 0 6 2 10 4 10 3 0 8 -4 11 -10z"/>
<path d="M2370 2736 c0 -9 -4 -15 -9 -11 -16 10 -21 -11 -7 -30 13 -18 14 -16
21 14 4 18 4 35 1 38 -3 4 -6 -1 -6 -11z"/>
<path d="M2800 2563 c0 -27 175 -541 188 -553 10 -8 16 -25 14 -38 -2 -14 3
-24 15 -28 10 -3 26 -10 35 -15 10 -5 24 -9 32 -9 7 0 21 -12 31 -26 15 -24
19 -25 32 -11 14 13 10 31 -35 166 l-51 152 70 50 c38 28 67 55 64 60 -4 5 0
7 7 4 12 -4 298 192 343 236 19 19 18 19 -91 19 -105 0 -112 -1 -157 -30 -26
-16 -47 -34 -47 -40 0 -5 -4 -9 -9 -8 -4 2 -53 -30 -109 -69 -55 -40 -104 -73
-110 -73 -5 0 -25 48 -44 108 l-34 107 -72 3 c-40 2 -72 0 -72 -5z m410 -119
c0 -8 -5 -12 -10 -9 -6 4 -8 11 -5 16 9 14 15 11 15 -7z"/>
<path d="M3584 2543 c17 -74 18 -251 2 -338 -20 -111 -20 -102 4 -108 44 -11
37 -72 -15 -124 -20 -20 -39 -31 -48 -27 -12 4 -23 -9 -43 -48 -39 -77 -96
-158 -160 -227 -59 -64 -74 -73 -74 -43 0 9 -4 24 -10 32 -7 12 -10 11 -16 -5
-3 -11 -26 -38 -50 -60 l-44 -40 21 -47 c19 -43 39 -63 39 -40 0 5 18 8 40 8
22 0 40 -4 40 -8 0 -4 10 -8 21 -8 31 0 184 160 254 266 95 143 154 294 180
462 14 88 14 330 0 365 -6 14 -20 17 -77 17 l-70 0 6 -27z m36 -73 c0 -5 -5
-10 -11 -10 -5 0 -7 5 -4 10 3 6 8 10 11 10 2 0 4 -4 4 -10z"/>
<path d="M2180 2549 c0 -5 5 -7 10 -4 6 3 10 8 10 11 0 2 -4 4 -10 4 -5 0 -10
-5 -10 -11z"/>
<path d="M2140 2427 c0 -13 21 -36 48 -51 19 -11 10 13 -14 40 -24 27 -34 30
-34 11z"/>
<path d="M2812 2191 c-11 -6 -11 -10 0 -18 30 -23 35 -22 30 2 -5 27 -10 29
-30 16z"/>
<path d="M2693 2105 c-12 -8 -20 -23 -18 -32 1 -10 -3 -24 -9 -32 -9 -12 -8
-13 7 -8 9 3 17 3 17 -1 0 -14 52 -31 79 -26 15 3 38 14 51 24 l25 19 -27 28
c-15 15 -31 24 -35 19 -4 -4 -1 -11 7 -16 24 -15 7 -18 -20 -3 -14 7 -21 13
-16 13 5 0 3 7 -4 15 -16 19 -30 19 -57 0z m27 -60 c13 -14 21 -25 17 -25 -3
0 -18 11 -33 25 -15 14 -23 25 -17 25 5 0 20 -11 33 -25z"/>
<path d="M1995 1989 c-21 -63 -38 -118 -40 -124 -1 -5 -5 -17 -8 -25 -15 -35
-75 -220 -71 -220 3 0 103 68 160 110 19 14 30 41 81 199 14 44 10 67 -8 41
-7 -11 -8 -7 -5 13 4 23 2 26 -8 18 -7 -6 -16 -8 -19 -4 -4 3 -7 0 -7 -7 0
-17 -13 -4 -16 15 -1 8 3 15 8 15 6 0 3 9 -6 19 -10 11 -16 24 -13 28 3 5 2
15 -3 22 -5 9 -21 -26 -45 -100z"/>
<path d="M1018 2013 c7 -3 16 -2 19 1 4 3 -2 6 -13 5 -11 0 -14 -3 -6 -6z"/>
<path d="M2490 1896 c0 -9 5 -16 10 -16 6 0 10 4 10 9 0 6 -4 13 -10 16 -5 3
-10 -1 -10 -9z"/>
<path d="M2227 1773 c-53 -38 -96 -74 -97 -81 0 -7 -4 -11 -9 -8 -5 3 -26 -8
-47 -24 -22 -16 -82 -58 -135 -95 -148 -100 -145 -90 -35 -163 132 -87 309
-163 330 -142 5 5 19 10 31 9 18 0 19 -1 2 -8 -17 -6 -17 -8 5 -18 54 -25 150
-37 288 -37 137 -1 253 14 265 34 8 14 -6 40 -19 33 -6 -3 -1 4 11 16 12 11
28 21 35 21 10 0 10 2 -1 9 -8 5 -11 16 -8 25 10 25 -8 28 -94 11 -210 -39
-476 0 -671 101 l-29 15 43 33 c24 18 114 84 202 146 l158 114 -28 20 c-15 11
-34 21 -41 22 -7 1 -20 9 -29 18 -8 9 -19 16 -23 16 -4 0 -51 -30 -104 -67z
m-214 -206 c4 3 7 1 7 -5 0 -6 -9 -16 -19 -21 -16 -9 -19 -7 -17 13 1 16 5 21
12 15 6 -5 14 -6 17 -2z m287 -257 c0 -5 -2 -10 -4 -10 -3 0 -8 5 -11 10 -3 6
-1 10 4 10 6 0 11 -4 11 -10z m220 -30 c0 -5 -4 -10 -10 -10 -5 0 -10 5 -10
10 0 6 5 10 10 10 6 0 10 -4 10 -10z"/>
<path d="M2953 1150 c29 -23 67 -26 67 -6 0 8 -4 18 -10 21 -5 3 -10 -1 -10
-10 0 -14 -3 -14 -30 0 -40 21 -48 19 -17 -5z"/>
<path d="M2934 1101 c4 -5 1 -11 -6 -13 -17 -6 0 -28 22 -28 10 0 20 7 24 15
3 9 0 15 -9 15 -8 0 -15 5 -15 10 0 6 -5 10 -11 10 -5 0 -8 -4 -5 -9z"/>
<path d="M3150 900 c0 -5 5 -10 10 -10 6 0 10 5 10 10 0 6 -4 10 -10 10 -5 0
-10 -4 -10 -10z"/>
<path d="M3197 857 c-3 -8 1 -14 9 -14 8 0 14 6 14 14 0 7 -4 13 -9 13 -5 0
-11 -6 -14 -13z"/>
<path d="M3109 858 c0 -2 -2 -10 -4 -19 -1 -9 -6 -26 -10 -38 -4 -13 0 -30 10
-43 17 -25 23 -26 37 -6 7 10 10 9 19 -5 6 -9 14 -15 20 -12 5 4 9 1 9 -6 0
-22 20 4 30 39 5 20 5 30 -1 27 -5 -4 -17 7 -26 24 -10 16 -26 32 -35 35 -10
2 -16 0 -12 -5 3 -5 0 -9 -5 -9 -6 0 -11 5 -11 10 0 8 -18 15 -21 8z"/>
<path d="M3200 820 c0 -5 7 -10 15 -10 8 0 15 5 15 10 0 6 -7 10 -15 10 -8 0
-15 -4 -15 -10z"/>
<path d="M2960 760 c0 -5 5 -10 10 -10 6 0 10 5 10 10 0 6 -4 10 -10 10 -5 0
-10 -4 -10 -10z"/>
<path d="M2969 673 c0 -11 -3 -13 -6 -5 -2 6 -9 10 -13 7 -12 -7 -1 -118 12
-126 6 -4 7 -12 3 -18 -10 -17 11 -64 35 -79 15 -9 18 -9 14 1 -3 8 2 14 11
14 9 0 14 -6 11 -14 -8 -19 7 -16 24 5 8 9 16 35 16 56 1 21 6 41 11 45 21 14
9 41 -24 52 -18 6 -33 15 -33 20 0 5 -7 9 -15 9 -8 0 -15 5 -15 11 0 5 -4 8
-9 5 -5 -4 -7 3 -4 14 3 11 0 20 -6 20 -6 0 -11 -8 -12 -17z m41 -53 c0 -5 -5
-10 -11 -10 -5 0 -7 5 -4 10 3 6 8 10 11 10 2 0 4 -4 4 -10z m60 -30 c0 -5 -2
-10 -4 -10 -3 0 -8 5 -11 10 -3 6 -1 10 4 10 6 0 11 -4 11 -10z"/>
<path d="M3820 461 c0 -6 5 -13 10 -16 8 -5 7 -11 -1 -21 -6 -7 -8 -21 -5 -30
6 -15 16 -18 13 -4 0 3 5 15 12 28 10 18 10 27 0 38 -13 16 -29 19 -29 5z"/>
<path d="M3881 434 c0 -11 3 -14 6 -6 3 7 2 16 -1 19 -3 4 -6 -2 -5 -13z"/>
<path d="M3883 403 c-21 -8 -15 -33 7 -33 13 0 20 7 20 20 0 20 -5 23 -27 13z"/>
<path d="M3130 370 c-24 -7 -24 -8 -5 -15 11 -5 23 -13 26 -18 9 -13 58 -12
70 2 5 6 6 9 2 6 -3 -3 -13 1 -22 8 -23 20 -43 25 -71 17z"/>
<path d="M3070 340 c0 -5 6 -7 14 -4 7 3 16 -2 19 -10 4 -9 17 -16 29 -16 18
0 20 2 8 9 -8 6 -17 8 -21 5 -4 -2 -9 3 -13 11 -6 16 -36 21 -36 5z"/>
</g>
</svg>
